<svg xmlns="http://www.w3.org/2000/svg" width="900" height="420">
<rect width="100%" height="100%" fill="#ffffff"/>
<line x1="70" y1="370" x2="880" y2="370" stroke="#000"/>
<line x1="70" y1="20" x2="70" y2="370" stroke="#000"/>
<text x="450.0" y="410" text-anchor="middle" font-family="sans-serif" font-size="14">Distance along tunnel (Å)</text>
<text x="15" y="195.0" transform="rotate(-90 15,195.0)" text-anchor="middle" font-family="sans-serif" font-size="14">Energy (kcal/mol)</text>
<text x="450.0" y="15" text-anchor="middle" font-family="sans-serif" font-size="16">Lower-bound: Vina vs CaverDock</text>
<polyline fill="none" stroke="#1f77b4" stroke-width="2" points="70.0,347.0 76.6,347.1 106.3,337.8 132.7,347.1 162.7,305.0 188.2,287.6 216.0,350.0 239.7,345.7 268.3,312.7 289.0,20.0 319.6,346.5 340.7,324.8 361.1,323.7 389.7,309.9 414.2,323.6 444.1,311.3 471.8,367.2 496.4,360.0 522.3,364.5 548.3,347.6 572.0,306.7 596.9,369.2 621.3,368.4 644.9,370.0 669.8,361.4 685.3,365.4 712.9,364.0 734.8,359.9 763.6,356.5 782.7,354.6 809.5,355.2 827.2,356.9 850.3,360.8 880.0,363.9" />
<polyline fill="none" stroke="#2ca02c" stroke-width="2" points="70.0,339.9 76.6,338.3 106.3,326.9 132.7,323.7 162.7,322.1 188.2,322.1 216.0,325.3 239.7,328.6 268.3,328.6 289.0,330.2 319.6,330.2 340.7,330.2 361.1,326.9 389.7,328.6 414.2,335.0 444.1,339.9 471.8,346.4 496.4,351.2 522.3,356.1 548.3,359.3 572.0,359.3 596.9,360.9 621.3,360.9 644.9,362.5 669.8,364.2 685.3,364.2 712.9,367.4 734.8,367.4 763.6,365.8 782.7,365.8 809.5,365.8 827.2,367.4 850.3,365.8 880.0,367.4" />
<rect x="80" y="25" width="220" height="40" fill="#ffffff" stroke="#ccc"/>
<line x1="90" y1="40" x2="120" y2="40" stroke="#1f77b4" stroke-width="3"/>
<text x="130" y="45" font-family="sans-serif" font-size="12">Vina per-disc (LB)</text>
<line x1="90" y1="58" x2="120" y2="58" stroke="#2ca02c" stroke-width="3"/>
<text x="130" y="63" font-family="sans-serif" font-size="12">CaverDock LB</text>
</svg>
