<svg xmlns="http://www.w3.org/2000/svg" width="900" height="420">
<rect width="100%" height="100%" fill="#ffffff"/>
<line x1="70" y1="370" x2="880" y2="370" stroke="#000"/>
<line x1="70" y1="20" x2="70" y2="370" stroke="#000"/>
<text x="450.0" y="410" text-anchor="middle" font-family="sans-serif" font-size="14">Distance along tunnel (Å)</text>
<text x="15" y="195.0" transform="rotate(-90 15,195.0)" text-anchor="middle" font-family="sans-serif" font-size="14">Energy (kcal/mol)</text>
<text x="450.0" y="15" text-anchor="middle" font-family="sans-serif" font-size="16">Lower-bound: Vina vs CaverDock</text>
<polyline fill="none" stroke="#1f77b4" stroke-width="2" points="70.0,340.1 76.6,335.6 106.3,332.0 132.7,328.0 162.7,299.8 188.2,277.9 216.0,282.0 239.7,321.0 268.3,285.2 289.0,20.0 319.6,340.5 340.7,319.1 361.1,311.3 389.7,274.8 414.2,311.3 444.1,305.9 471.8,360.8 496.4,353.7 522.3,352.4 548.3,341.4 572.0,301.4 596.9,359.3 621.3,359.3 644.9,356.7 669.8,353.0 685.3,354.9 712.9,333.5 734.8,336.2 763.6,348.2 782.7,340.3 809.5,346.7 827.2,350.2 850.3,370.0 880.0,368.9" />
<polyline fill="none" stroke="#2ca02c" stroke-width="2" points="70.0,334.0 76.6,332.4 106.3,321.3 132.7,318.1 162.7,316.5 188.2,316.5 216.0,319.7 239.7,322.9 268.3,322.9 289.0,324.4 319.6,324.4 340.7,324.4 361.1,321.3 389.7,322.9 414.2,329.2 444.1,334.0 471.8,340.3 496.4,345.1 522.3,349.9 548.3,353.0 572.0,353.0 596.9,354.6 621.3,354.6 644.9,356.2 669.8,357.8 685.3,357.8 712.9,361.0 734.8,361.0 763.6,359.4 782.7,359.4 809.5,359.4 827.2,361.0 850.3,359.4 880.0,361.0" />
<rect x="80" y="25" width="220" height="40" fill="#ffffff" stroke="#ccc"/>
<line x1="90" y1="40" x2="120" y2="40" stroke="#1f77b4" stroke-width="3"/>
<text x="130" y="45" font-family="sans-serif" font-size="12">Vina per-disc (LB)</text>
<line x1="90" y1="58" x2="120" y2="58" stroke="#2ca02c" stroke-width="3"/>
<text x="130" y="63" font-family="sans-serif" font-size="12">CaverDock LB</text>
</svg>
