<svg xmlns="http://www.w3.org/2000/svg" width="900" height="420">
<rect width="100%" height="100%" fill="#ffffff"/>
<line x1="70" y1="370" x2="880" y2="370" stroke="#000"/>
<line x1="70" y1="20" x2="70" y2="370" stroke="#000"/>
<text x="450.0" y="410" text-anchor="middle" font-family="sans-serif" font-size="14">Distance along tunnel (Å)</text>
<text x="15" y="195.0" transform="rotate(-90 15,195.0)" text-anchor="middle" font-family="sans-serif" font-size="14">Energy (kcal/mol)</text>
<text x="450.0" y="15" text-anchor="middle" font-family="sans-serif" font-size="16">Lower-bound: Vina vs CaverDock</text>
<polyline fill="none" stroke="#1f77b4" stroke-width="2" points="70.0,225.2 76.6,226.2 106.3,229.3 132.7,228.0 162.7,230.0 188.2,224.1 216.0,229.5 239.7,226.2 268.3,255.8 289.0,261.6 319.6,291.9 340.7,310.3 361.1,317.4 389.7,342.0 414.2,349.4 444.1,356.9 471.8,359.0 496.4,361.5 522.3,363.8 548.3,356.4 572.0,365.1 596.9,369.6 621.3,370.0 644.9,365.6 669.8,368.6 685.3,366.8 712.9,365.2 734.8,364.0 763.6,368.5 782.7,369.1 809.5,368.1 827.2,364.9 850.3,367.1 880.0,364.6" />
<polyline fill="none" stroke="#2ca02c" stroke-width="2" points="70.0,134.4 76.6,124.0 106.3,51.2 132.7,30.4 162.7,20.0 188.2,20.0 216.0,40.8 239.7,61.6 268.3,61.6 289.0,72.0 319.6,72.0 340.7,72.0 361.1,51.2 389.7,61.6 414.2,103.2 444.1,134.4 471.8,176.1 496.4,207.3 522.3,238.5 548.3,259.3 572.0,259.3 596.9,269.7 621.3,269.7 644.9,280.1 669.8,290.5 685.3,290.5 712.9,311.3 734.8,311.3 763.6,300.9 782.7,300.9 809.5,300.9 827.2,311.3 850.3,300.9 880.0,311.3" />
<rect x="80" y="25" width="220" height="40" fill="#ffffff" stroke="#ccc"/>
<line x1="90" y1="40" x2="120" y2="40" stroke="#1f77b4" stroke-width="3"/>
<text x="130" y="45" font-family="sans-serif" font-size="12">Vina per-disc (LB)</text>
<line x1="90" y1="58" x2="120" y2="58" stroke="#2ca02c" stroke-width="3"/>
<text x="130" y="63" font-family="sans-serif" font-size="12">CaverDock LB</text>
</svg>
