<svg xmlns="http://www.w3.org/2000/svg" width="900" height="420">
<rect width="100%" height="100%" fill="#ffffff"/>
<line x1="70" y1="370" x2="880" y2="370" stroke="#000"/>
<line x1="70" y1="20" x2="70" y2="370" stroke="#000"/>
<text x="450.0" y="410" text-anchor="middle" font-family="sans-serif" font-size="14">Distance along tunnel (Å)</text>
<text x="15" y="195.0" transform="rotate(-90 15,195.0)" text-anchor="middle" font-family="sans-serif" font-size="14">Energy (kcal/mol)</text>
<text x="450.0" y="15" text-anchor="middle" font-family="sans-serif" font-size="16">Lower-bound: Vina vs CaverDock</text>
<polyline fill="none" stroke="#1f77b4" stroke-width="2" points="70.0,340.3 76.6,335.8 106.3,332.2 132.7,328.2 162.7,299.9 188.2,278.1 216.0,282.1 239.7,321.2 268.3,285.4 289.0,20.0 319.6,340.7 340.7,319.3 361.1,311.5 389.7,274.9 414.2,311.5 444.1,306.0 471.8,361.0 496.4,353.9 522.3,352.6 548.3,341.6 572.0,301.6 596.9,359.5 621.3,359.5 644.9,356.9 669.8,353.2 685.3,342.0 712.9,340.9 734.8,341.3 763.6,340.3 782.7,353.7 809.5,354.3 827.2,346.7 850.3,370.0 880.0,369.2" />
<polyline fill="none" stroke="#2ca02c" stroke-width="2" points="70.0,334.2 76.6,332.6 106.3,321.5 132.7,318.3 162.7,316.7 188.2,316.7 216.0,319.9 239.7,323.1 268.3,323.1 289.0,324.6 319.6,324.6 340.7,324.6 361.1,321.5 389.7,323.1 414.2,329.4 444.1,334.2 471.8,340.5 496.4,345.3 522.3,350.1 548.3,353.2 572.0,353.2 596.9,354.8 621.3,354.8 644.9,356.4 669.8,358.0 685.3,358.0 712.9,361.2 734.8,361.2 763.6,359.6 782.7,359.6 809.5,359.6 827.2,361.2 850.3,359.6 880.0,361.2" />
<rect x="80" y="25" width="220" height="40" fill="#ffffff" stroke="#ccc"/>
<line x1="90" y1="40" x2="120" y2="40" stroke="#1f77b4" stroke-width="3"/>
<text x="130" y="45" font-family="sans-serif" font-size="12">Vina per-disc (LB)</text>
<line x1="90" y1="58" x2="120" y2="58" stroke="#2ca02c" stroke-width="3"/>
<text x="130" y="63" font-family="sans-serif" font-size="12">CaverDock LB</text>
</svg>
