<svg xmlns="http://www.w3.org/2000/svg" width="900" height="420">
<rect width="100%" height="100%" fill="#ffffff"/>
<line x1="70" y1="370" x2="880" y2="370" stroke="#000"/>
<line x1="70" y1="20" x2="70" y2="370" stroke="#000"/>
<text x="450.0" y="410" text-anchor="middle" font-family="sans-serif" font-size="14">Distance along tunnel (Å)</text>
<text x="15" y="195.0" transform="rotate(-90 15,195.0)" text-anchor="middle" font-family="sans-serif" font-size="14">Energy (kcal/mol)</text>
<text x="450.0" y="15" text-anchor="middle" font-family="sans-serif" font-size="16">Lower-bound: Vina vs CaverDock</text>
<polyline fill="none" stroke="#1f77b4" stroke-width="2" points="70.0,239.3 76.6,243.9 106.3,212.8 132.7,247.8 162.7,242.0 188.2,263.5 216.0,21.6 239.7,214.3 268.3,20.0 289.0,59.5 319.6,53.9 340.7,81.6 361.1,185.1 389.7,132.4 414.2,223.7 444.1,188.5 471.8,332.8 496.4,281.0 522.3,206.3 548.3,272.2 572.0,321.3 596.9,317.6 621.3,349.4 644.9,338.8 669.8,339.3 685.3,350.8 712.9,355.7 734.8,351.0 763.6,370.0 782.7,352.2 809.5,354.7 827.2,358.4 850.3,350.2 880.0,356.6" />
<polyline fill="none" stroke="#2ca02c" stroke-width="2" points="70.0,200.9 76.6,192.1 106.3,130.5 132.7,112.9 162.7,104.1 188.2,104.1 216.0,121.7 239.7,139.3 268.3,139.3 289.0,148.1 319.6,148.1 340.7,148.1 361.1,130.5 389.7,139.3 414.2,174.5 444.1,200.9 471.8,236.1 496.4,262.5 522.3,288.9 548.3,306.5 572.0,306.5 596.9,315.3 621.3,315.3 644.9,324.1 669.8,332.9 685.3,332.9 712.9,350.5 734.8,350.5 763.6,341.7 782.7,341.7 809.5,341.7 827.2,350.5 850.3,341.7 880.0,350.5" />
<rect x="80" y="25" width="220" height="40" fill="#ffffff" stroke="#ccc"/>
<line x1="90" y1="40" x2="120" y2="40" stroke="#1f77b4" stroke-width="3"/>
<text x="130" y="45" font-family="sans-serif" font-size="12">Vina per-disc (LB)</text>
<line x1="90" y1="58" x2="120" y2="58" stroke="#2ca02c" stroke-width="3"/>
<text x="130" y="63" font-family="sans-serif" font-size="12">CaverDock LB</text>
</svg>
