<svg xmlns="http://www.w3.org/2000/svg" width="900" height="420">
<rect width="100%" height="100%" fill="#ffffff"/>
<line x1="70" y1="370" x2="880" y2="370" stroke="#000"/>
<line x1="70" y1="20" x2="70" y2="370" stroke="#000"/>
<text x="450.0" y="410" text-anchor="middle" font-family="sans-serif" font-size="14">Distance along tunnel (Å)</text>
<text x="15" y="195.0" transform="rotate(-90 15,195.0)" text-anchor="middle" font-family="sans-serif" font-size="14">Energy (kcal/mol)</text>
<text x="450.0" y="15" text-anchor="middle" font-family="sans-serif" font-size="16">Lower-bound: Vina vs CaverDock</text>
<polyline fill="none" stroke="#1f77b4" stroke-width="2" points="70.0,332.5 91.4,314.8 187.7,212.2 273.4,288.2 370.8,42.8 453.6,20.0 543.7,34.7 620.8,46.0 713.7,46.8 780.8,88.7 880.0,118.5" />
<polyline fill="none" stroke="#2ca02c" stroke-width="2" points="70.0,370.0 91.4,355.4 187.7,253.6 273.4,224.5 370.8,209.9 453.6,209.9 543.7,239.0 620.8,268.1 713.7,268.1 780.8,282.7 880.0,282.7" />
<rect x="80" y="25" width="220" height="40" fill="#ffffff" stroke="#ccc"/>
<line x1="90" y1="40" x2="120" y2="40" stroke="#1f77b4" stroke-width="3"/>
<text x="130" y="45" font-family="sans-serif" font-size="12">Vina per-disc (LB)</text>
<line x1="90" y1="58" x2="120" y2="58" stroke="#2ca02c" stroke-width="3"/>
<text x="130" y="63" font-family="sans-serif" font-size="12">CaverDock LB</text>
</svg>
