<svg xmlns="http://www.w3.org/2000/svg" width="900" height="420">
<rect width="100%" height="100%" fill="#ffffff"/>
<line x1="70" y1="370" x2="880" y2="370" stroke="#000"/>
<line x1="70" y1="20" x2="70" y2="370" stroke="#000"/>
<text x="450.0" y="410" text-anchor="middle" font-family="sans-serif" font-size="14">Distance along tunnel (Å)</text>
<text x="15" y="195.0" transform="rotate(-90 15,195.0)" text-anchor="middle" font-family="sans-serif" font-size="14">Energy (kcal/mol)</text>
<text x="450.0" y="15" text-anchor="middle" font-family="sans-serif" font-size="16">Lower-bound: Vina vs CaverDock</text>
<polyline fill="none" stroke="#1f77b4" stroke-width="2" points="70.0,239.5 76.6,239.1 106.3,240.2 132.7,240.3 162.7,239.8 188.2,240.1 216.0,239.8 239.7,239.7 268.3,239.5 289.0,239.6 319.6,234.0 340.7,253.4 361.1,273.8 389.7,302.5 414.2,329.1 444.1,25.7 471.8,361.8 496.4,364.4 522.3,370.0 548.3,369.8 572.0,361.7 596.9,361.3 621.3,364.1 644.9,364.0 669.8,366.2 685.3,366.0 712.9,366.3 734.8,365.0 763.6,364.5 782.7,366.2 809.5,366.3 827.2,366.5 850.3,365.8 880.0,362.2" />
<polyline fill="none" stroke="#2ca02c" stroke-width="2" points="70.0,154.4 76.6,142.2 106.3,56.7 132.7,32.2 162.7,20.0 188.2,20.0 216.0,44.4 239.7,68.9 268.3,68.9 289.0,81.1 319.6,81.1 340.7,81.1 361.1,56.7 389.7,68.9 414.2,117.8 444.1,154.4 471.8,203.3 496.4,240.0 522.3,276.6 548.3,301.1 572.0,301.1 596.9,313.3 621.3,313.3 644.9,325.5 669.8,337.7 685.3,337.7 712.9,362.2 734.8,362.2 763.6,350.0 782.7,350.0 809.5,350.0 827.2,362.2 850.3,350.0 880.0,362.2" />
<rect x="80" y="25" width="220" height="40" fill="#ffffff" stroke="#ccc"/>
<line x1="90" y1="40" x2="120" y2="40" stroke="#1f77b4" stroke-width="3"/>
<text x="130" y="45" font-family="sans-serif" font-size="12">Vina per-disc (LB)</text>
<line x1="90" y1="58" x2="120" y2="58" stroke="#2ca02c" stroke-width="3"/>
<text x="130" y="63" font-family="sans-serif" font-size="12">CaverDock LB</text>
</svg>
